
        <svg xmlns="http://www.w3.org/2000/svg" xmlns:xlink="http://www.w3.org/1999/xlink" version="1.1" width="3155.4580834960716" height="510.40259398982994" viewBox="0 0 3155.4580834960716 510.40259398982994">
&#x9;&#x9;&#x9;
&#x9;&#x9;&#x9;<g transform="scale(7.77290417480358) translate(10, 10)">
&#x9;&#x9;&#x9;&#x9;<defs id="SvgjsDefs12986"></defs><g id="SvgjsG12987" featureKey="sloganFeature-0" transform="matrix(0.5895642465237906,0,0,0.5895642465237906,62.41043575347621,33.80230319447316)" fill="#fff"><path d="M1.26 20 c-0.14 0 -0.26 -0.12 -0.26 -0.26 l0 -11.98 c0 -0.14 0.12 -0.26 0.26 -0.26 l2.6 0 c0.14 0 0.26 0.12 0.26 0.26 l0 9.36 l4.5 0 c0.14 0 0.26 0.12 0.26 0.26 l0 2.36 c0 0.14 -0.12 0.26 -0.26 0.26 l-7.36 0 z M20.5735 20 c-1.2 0 -2.3 -0.28 -3.26 -0.84 c-0.98 -0.56 -1.76 -1.36 -2.34 -2.32 c-0.56 -0.98 -0.84 -2.1 -0.84 -3.3 c0 -1.18 0.28 -2.28 0.84 -3.26 c0.58 -0.98 1.34 -1.76 2.32 -2.32 s2.08 -0.84 3.28 -0.84 c1.18 0 2.28 0.28 3.26 0.84 s1.76 1.34 2.32 2.32 c0.58 0.98 0.86 2.08 0.86 3.26 c0 1.2 -0.28 2.3 -0.86 3.28 c-0.56 0.98 -1.34 1.76 -2.32 2.34 c-0.98 0.56 -2.08 0.84 -3.26 0.84 z M20.6135 17.12 c0.58 0 1.12 -0.16 1.6 -0.46 c0.5 -0.32 0.9 -0.74 1.18 -1.3 c0.3 -0.54 0.44 -1.16 0.44 -1.82 c0 -0.64 -0.14 -1.26 -0.44 -1.8 c-0.28 -0.54 -0.68 -0.96 -1.18 -1.28 c-0.48 -0.3 -1.02 -0.46 -1.6 -0.46 c-0.6 0 -1.14 0.16 -1.64 0.46 c-0.52 0.32 -0.92 0.74 -1.22 1.28 c-0.3 0.56 -0.44 1.16 -0.44 1.8 c0 0.66 0.14 1.28 0.44 1.82 c0.32 0.54 0.72 0.98 1.22 1.28 c0.5 0.32 1.04 0.48 1.64 0.48 z M39.367 20 c-1.18 0 -2.26 -0.28 -3.22 -0.84 c-0.96 -0.58 -1.72 -1.36 -2.26 -2.34 s-0.82 -2.08 -0.82 -3.3 c0 -1.18 0.28 -2.28 0.84 -3.26 c0.56 -0.96 1.34 -1.74 2.3 -2.3 c0.98 -0.56 2.08 -0.84 3.24 -0.84 c0.88 0 1.74 0.2 2.58 0.56 c0.84 0.38 1.56 0.88 2.16 1.52 c0.08 0.1 0.08 0.24 0 0.34 l-1.9 1.56 c-0.06 0.06 -0.12 0.1 -0.2 0.1 s-0.16 -0.04 -0.2 -0.1 c-1.02 -1.24 -2.66 -1.5 -4.04 -0.64 c-1.2 0.74 -1.64 2.1 -1.58 3.46 c0.06 1.38 1.06 2.56 2.38 2.96 c1.2 0.36 2.38 0.08 3.24 -0.84 c0.06 -0.04 0.12 -0.08 0.2 -0.06 c0.08 0 0.14 0.02 0.18 0.08 l1.94 1.36 c0.08 0.1 0.08 0.24 0 0.34 c-0.64 0.68 -1.4 1.24 -2.24 1.64 c-0.86 0.4 -1.74 0.6 -2.6 0.6 z M49.5805 20 c-0.08 0 -0.16 -0.04 -0.2 -0.12 c-0.06 -0.06 -0.06 -0.16 -0.04 -0.24 l4.66 -11.98 c0.04 -0.1 0.14 -0.16 0.24 -0.16 l2.68 0 c0.1 0 0.2 0.06 0.24 0.16 l4.58 11.98 c0.02 0.08 0.02 0.16 -0.04 0.24 c-0.04 0.08 -0.12 0.12 -0.2 0.12 l-2.78 0 c-0.1 0 -0.2 -0.06 -0.24 -0.16 l-0.74 -1.84 l-4.5 0.02 l-0.74 1.82 c-0.04 0.1 -0.14 0.16 -0.24 0.16 l-2.68 0 z M54.0605 15.5 l2.88 0 l-1.44 -4.24 z M67.874 20 c-0.14 0 -0.26 -0.12 -0.26 -0.26 l0 -11.98 c0 -0.14 0.12 -0.26 0.26 -0.26 l2.6 0 c0.14 0 0.26 0.12 0.26 0.26 l0 9.36 l4.5 0 c0.14 0 0.26 0.12 0.26 0.26 l0 2.36 c0 0.14 -0.12 0.26 -0.26 0.26 l-7.36 0 z M91.261 20 c-0.16 0 -0.26 -0.12 -0.26 -0.26 l0 -11.98 c0 -0.14 0.1 -0.26 0.26 -0.26 l4.88 0 c1.52 0 2.72 0.38 3.56 1.16 c1.24 1.12 1.66 3.24 1.06 4.8 c-0.22 0.56 -0.6 1.08 -1.08 1.46 c-0.28 0.22 -0.58 0.38 -0.88 0.54 c0.86 1.36 2.16 4.12 2.16 4.12 c0.02 0.04 0.06 0.1 0.06 0.16 c0 0.14 -0.12 0.26 -0.26 0.26 l-2.96 0 c-0.08 0 -0.18 -0.06 -0.22 -0.14 l-1.74 -3.82 c-0.62 0.04 -1.1 0.02 -1.74 0.02 l0 3.68 c0 0.14 -0.12 0.26 -0.26 0.26 l-2.58 0 z M94.101 13.28 c0 0 2.52 0.28 3.4 -0.3 c0.34 -0.22 0.54 -0.76 0.54 -1.16 c-0.02 -0.44 -0.24 -0.9 -0.6 -1.18 c-0.38 -0.32 -1.32 -0.42 -1.8 -0.42 l-1.54 0.04 l0 3.02 z M113.5345 20 c-1.2 0 -2.3 -0.28 -3.26 -0.84 c-0.98 -0.56 -1.76 -1.36 -2.34 -2.32 c-0.56 -0.98 -0.84 -2.1 -0.84 -3.3 c0 -1.18 0.28 -2.28 0.84 -3.26 c0.58 -0.98 1.34 -1.76 2.32 -2.32 s2.08 -0.84 3.28 -0.84 c1.18 0 2.28 0.28 3.26 0.84 s1.76 1.34 2.32 2.32 c0.58 0.98 0.86 2.08 0.86 3.26 c0 1.2 -0.28 2.3 -0.86 3.28 c-0.56 0.98 -1.34 1.76 -2.32 2.34 c-0.98 0.56 -2.08 0.84 -3.26 0.84 z M113.5745 17.12 c0.58 0 1.12 -0.16 1.6 -0.46 c0.5 -0.32 0.9 -0.74 1.18 -1.3 c0.3 -0.54 0.44 -1.16 0.44 -1.82 c0 -0.64 -0.14 -1.26 -0.44 -1.8 c-0.28 -0.54 -0.68 -0.96 -1.18 -1.28 c-0.48 -0.3 -1.02 -0.46 -1.6 -0.46 c-0.6 0 -1.14 0.16 -1.64 0.46 c-0.52 0.32 -0.92 0.74 -1.22 1.28 c-0.3 0.56 -0.44 1.16 -0.44 1.8 c0 0.66 0.14 1.28 0.44 1.82 c0.32 0.54 0.72 0.98 1.22 1.28 c0.5 0.32 1.04 0.48 1.64 0.48 z M132.268 20 c-1.2 0 -2.3 -0.28 -3.26 -0.84 c-0.98 -0.56 -1.76 -1.36 -2.34 -2.32 c-0.56 -0.98 -0.84 -2.1 -0.84 -3.3 c0 -1.18 0.28 -2.28 0.84 -3.26 c0.58 -0.98 1.34 -1.76 2.32 -2.32 s2.08 -0.84 3.28 -0.84 c1.18 0 2.28 0.28 3.26 0.84 s1.76 1.34 2.32 2.32 c0.58 0.98 0.86 2.08 0.86 3.26 c0 1.2 -0.28 2.3 -0.86 3.28 c-0.56 0.98 -1.34 1.76 -2.32 2.34 c-0.98 0.56 -2.08 0.84 -3.26 0.84 z M132.308 17.12 c0.58 0 1.12 -0.16 1.6 -0.46 c0.5 -0.32 0.9 -0.74 1.18 -1.3 c0.3 -0.54 0.44 -1.16 0.44 -1.82 c0 -0.64 -0.14 -1.26 -0.44 -1.8 c-0.28 -0.54 -0.68 -0.96 -1.18 -1.28 c-0.48 -0.3 -1.02 -0.46 -1.6 -0.46 c-0.6 0 -1.14 0.16 -1.64 0.46 c-0.52 0.32 -0.92 0.74 -1.22 1.28 c-0.3 0.56 -0.44 1.16 -0.44 1.8 c0 0.66 0.14 1.28 0.44 1.82 c0.32 0.54 0.72 0.98 1.22 1.28 c0.5 0.32 1.04 0.48 1.64 0.48 z M147.2015 20 c-0.14 0 -0.24 -0.12 -0.24 -0.26 l0 -9.44 l-2.74 0 c-0.14 0 -0.26 -0.1 -0.26 -0.24 l0 -2.3 c0 -0.14 0.12 -0.26 0.26 -0.26 l8.58 0 c0.16 0 0.26 0.12 0.26 0.26 l0 2.3 c0 0.14 -0.1 0.24 -0.26 0.24 l-2.74 0 l0 9.44 c0 0.14 -0.12 0.26 -0.26 0.26 l-2.6 0 z M163.655 20.12 c-0.96 0 -1.92 -0.18 -2.84 -0.54 c-0.92 -0.34 -1.74 -0.84 -2.42 -1.44 c-0.08 -0.08 -0.1 -0.2 -0.06 -0.3 l0.7 -2.38 c0.04 -0.08 0.1 -0.14 0.18 -0.14 c0.08 -0.02 0.16 0 0.22 0.06 c1.06 1 2.26 1.9 3.76 1.98 c0.4 0.02 0.84 0.04 1.22 -0.08 c1.18 -0.38 0.68 -1.58 -0.2 -1.94 c-0.3 -0.12 -0.72 -0.26 -1.26 -0.42 c-0.8 -0.22 -1.46 -0.46 -1.96 -0.7 c-0.54 -0.24 -1 -0.62 -1.4 -1.12 c-0.38 -0.52 -0.58 -1.2 -0.58 -2.02 c0 -0.78 0.2 -1.46 0.6 -2.04 s0.96 -1.04 1.66 -1.34 s1.52 -0.46 2.44 -0.46 c0.82 0 1.62 0.12 2.42 0.38 c0.78 0.24 1.48 0.58 2.1 0.98 c0.1 0.08 0.14 0.2 0.08 0.32 l-0.66 2.24 c-0.02 0.08 -0.08 0.12 -0.16 0.14 c-0.06 0.02 -0.14 0.02 -0.2 -0.02 c-0.9 -0.56 -1.8 -1.24 -2.86 -1.38 c-0.7 -0.1 -1.76 -0.06 -2 0.78 c-0.3 1.08 1.28 1.36 2 1.58 c0.8 0.24 1.46 0.48 1.98 0.72 c0.54 0.26 1.02 0.66 1.4 1.16 c0.4 0.52 0.6 1.22 0.6 2.06 c0 0.82 -0.22 1.52 -0.64 2.12 c-0.4 0.6 -0.98 1.04 -1.7 1.36 c-0.72 0.28 -1.52 0.44 -2.42 0.44 z M175.7885 20 c-0.38 0 -0.7 -0.14 -0.94 -0.4 c-0.24 -0.28 -0.38 -0.6 -0.38 -1 s0.14 -0.72 0.38 -0.98 c0.26 -0.26 0.56 -0.4 0.94 -0.4 s0.7 0.14 0.94 0.4 s0.36 0.58 0.36 0.98 s-0.12 0.74 -0.36 1 s-0.56 0.4 -0.94 0.4 z M192.8555 20 c-0.14 0 -0.26 -0.12 -0.26 -0.26 l0 -11.98 c0 -0.14 0.12 -0.26 0.26 -0.26 l4.78 0 c1.32 0 2.2 0.28 2.98 0.86 c1.08 0.78 1.52 2.26 1.02 3.52 c-0.26 0.64 -0.7 0.98 -1.3 1.3 c0.86 0.12 1.4 0.68 1.72 1.08 c0.46 0.6 0.7 1.32 0.7 2.16 c0 1.1 -0.44 2 -1.28 2.64 c-0.82 0.62 -1.94 0.94 -3.32 0.94 l-5.3 0 z M195.5355 12.08 l1.96 0 c0.4 0 0.72 -0.08 0.94 -0.26 c0.2 -0.18 0.3 -0.42 0.3 -0.74 c0 -0.3 -0.1 -0.54 -0.3 -0.7 c-0.2 -0.18 -0.5 -0.26 -0.86 -0.26 l-2.04 0 l0 1.96 z M195.5355 17.54 l2.34 0 c0.6 0 1.06 -0.12 1.4 -0.36 c0.3 -0.22 0.46 -0.52 0.46 -0.94 c0 -0.38 -0.16 -0.66 -0.46 -0.88 c-0.32 -0.22 -0.76 -0.34 -1.32 -0.34 l-2.42 0 l0 2.52 z M214.029 20 c-1.08 0 -1.86 -0.22 -2.68 -0.66 c-0.8 -0.44 -1.44 -1.06 -1.88 -1.88 c-0.44 -0.8 -0.66 -1.76 -0.66 -2.86 l0 -7.04 c0 -0.14 0.12 -0.24 0.26 -0.24 l2.6 0 c0.14 0 0.24 0.1 0.24 0.24 l0 7.04 c0 0.8 0.22 1.42 0.64 1.86 s0.8 0.66 1.5 0.66 s1.06 -0.22 1.46 -0.64 c0.4 -0.44 0.6 -1.08 0.6 -1.88 l0 -7.04 c0 -0.14 0.12 -0.24 0.26 -0.24 l2.6 0 c0.14 0 0.26 0.1 0.26 0.24 l0 7.04 c0 1.1 -0.22 2.06 -0.66 2.86 c-0.42 0.82 -1.06 1.44 -1.86 1.88 s-1.6 0.66 -2.68 0.66 z M225.5425 20 c-0.14 0 -0.26 -0.12 -0.26 -0.26 l0 -11.98 c0 -0.14 0.12 -0.26 0.26 -0.26 l2.6 0 c0.14 0 0.26 0.12 0.26 0.26 l0 11.98 c0 0.14 -0.12 0.26 -0.26 0.26 l-2.6 0 z M234.716 20 c-0.14 0 -0.26 -0.12 -0.26 -0.26 l0 -11.98 c0 -0.14 0.12 -0.26 0.26 -0.26 l2.6 0 c0.14 0 0.26 0.12 0.26 0.26 l0 9.36 l4.5 0 c0.14 0 0.26 0.12 0.26 0.26 l0 2.36 c0 0.14 -0.12 0.26 -0.26 0.26 l-7.36 0 z M251.6295 20 c-0.14 0 -0.24 -0.12 -0.24 -0.26 l0 -9.44 l-2.74 0 c-0.14 0 -0.26 -0.1 -0.26 -0.24 l0 -2.3 c0 -0.14 0.12 -0.26 0.26 -0.26 l8.58 0 c0.16 0 0.26 0.12 0.26 0.26 l0 2.3 c0 0.14 -0.1 0.24 -0.26 0.24 l-2.74 0 l0 9.44 c0 0.14 -0.12 0.26 -0.26 0.26 l-2.6 0 z M276.2365 20 c-0.14 0 -0.24 -0.12 -0.24 -0.26 l0 -9.44 l-2.74 0 c-0.14 0 -0.26 -0.1 -0.26 -0.24 l0 -2.3 c0 -0.14 0.12 -0.26 0.26 -0.26 l8.58 0 c0.16 0 0.26 0.12 0.26 0.26 l0 2.3 c0 0.14 -0.1 0.24 -0.26 0.24 l-2.74 0 l0 9.44 c0 0.14 -0.12 0.26 -0.26 0.26 l-2.6 0 z M293.79 20 c-1.2 0 -2.3 -0.28 -3.26 -0.84 c-0.98 -0.56 -1.76 -1.36 -2.34 -2.32 c-0.56 -0.98 -0.84 -2.1 -0.84 -3.3 c0 -1.18 0.28 -2.28 0.84 -3.26 c0.58 -0.98 1.34 -1.76 2.32 -2.32 s2.08 -0.84 3.28 -0.84 c1.18 0 2.28 0.28 3.26 0.84 s1.76 1.34 2.32 2.32 c0.58 0.98 0.86 2.08 0.86 3.26 c0 1.2 -0.28 2.3 -0.86 3.28 c-0.56 0.98 -1.34 1.76 -2.32 2.34 c-0.98 0.56 -2.08 0.84 -3.26 0.84 z M293.83 17.12 c0.58 0 1.12 -0.16 1.6 -0.46 c0.5 -0.32 0.9 -0.74 1.18 -1.3 c0.3 -0.54 0.44 -1.16 0.44 -1.82 c0 -0.64 -0.14 -1.26 -0.44 -1.8 c-0.28 -0.54 -0.68 -0.96 -1.18 -1.28 c-0.48 -0.3 -1.02 -0.46 -1.6 -0.46 c-0.6 0 -1.14 0.16 -1.64 0.46 c-0.52 0.32 -0.92 0.74 -1.22 1.28 c-0.3 0.56 -0.44 1.16 -0.44 1.8 c0 0.66 0.14 1.28 0.44 1.82 c0.32 0.54 0.72 0.98 1.22 1.28 c0.5 0.32 1.04 0.48 1.64 0.48 z M315.997 20 c-0.14 0 -0.26 -0.12 -0.26 -0.26 l0 -11.98 c0 -0.14 0.12 -0.26 0.26 -0.26 l4.78 0 c1.32 0 2.2 0.28 2.98 0.86 c1.08 0.78 1.52 2.26 1.02 3.52 c-0.26 0.64 -0.7 0.98 -1.3 1.3 c0.86 0.12 1.4 0.68 1.72 1.08 c0.46 0.6 0.7 1.32 0.7 2.16 c0 1.1 -0.44 2 -1.28 2.64 c-0.82 0.62 -1.94 0.94 -3.32 0.94 l-5.3 0 z M318.677 12.08 l1.96 0 c0.4 0 0.72 -0.08 0.94 -0.26 c0.2 -0.18 0.3 -0.42 0.3 -0.74 c0 -0.3 -0.1 -0.54 -0.3 -0.7 c-0.2 -0.18 -0.5 -0.26 -0.86 -0.26 l-2.04 0 l0 1.96 z M318.677 17.54 l2.34 0 c0.6 0 1.06 -0.12 1.4 -0.36 c0.3 -0.22 0.46 -0.52 0.46 -0.94 c0 -0.38 -0.16 -0.66 -0.46 -0.88 c-0.32 -0.22 -0.76 -0.34 -1.32 -0.34 l-2.42 0 l0 2.52 z M331.9505 20 l0 -11.98 c0 -0.5 0.1 -0.6 0.26 -0.6 l8.76 0 c0.14 0 0.26 0.1 0.26 0.24 l0 2.26 c0 0.14 -0.12 0.26 -0.26 0.26 l-5.92 0 l0 2.08 l3.74 0 c0.14 0 0.26 0.12 0.26 0.26 l0 2.24 c0 0.14 -0.12 0.26 -0.26 0.26 l-3.74 0 l0 2.14 l5.9 0 c0.14 0 0.26 0.12 0.26 0.26 l0 2.24 c0 0.14 -0.12 0.26 -0.26 0.26 l-8.74 0 c-0.16 0 -0.26 -0.12 -0.26 0.08 z M356.9975 20 c-0.14 0 -0.26 -0.12 -0.26 -0.26 l0 -11.98 c0 -0.14 0.12 -0.26 0.26 -0.26 l8.26 0 c0.08 0 0.14 0.02 0.18 0.08 c0.06 0.04 0.08 0.1 0.08 0.18 l-0.02 2.24 c0 0.14 -0.12 0.26 -0.26 0.26 l-5.4 0 l0 2.42 l3.4 0 c0.14 0 0.26 0.12 0.26 0.26 l0 2.26 c0 0.14 -0.12 0.26 -0.26 0.26 l-3.4 0 l0 4.28 c0 0.14 -0.1 0.26 -0.24 0.26 l-2.6 0 z M376.811 20 c-1.2 0 -2.3 -0.28 -3.26 -0.84 c-0.98 -0.56 -1.76 -1.36 -2.34 -2.32 c-0.56 -0.98 -0.84 -2.1 -0.84 -3.3 c0 -1.18 0.28 -2.28 0.84 -3.26 c0.58 -0.98 1.34 -1.76 2.32 -2.32 s2.08 -0.84 3.28 -0.84 c1.18 0 2.28 0.28 3.26 0.84 s1.76 1.34 2.32 2.32 c0.58 0.98 0.86 2.08 0.86 3.26 c0 1.2 -0.28 2.3 -0.86 3.28 c-0.56 0.98 -1.34 1.76 -2.32 2.34 c-0.98 0.56 -2.08 0.84 -3.26 0.84 z M376.851 17.12 c0.58 0 1.12 -0.16 1.6 -0.46 c0.5 -0.32 0.9 -0.74 1.18 -1.3 c0.3 -0.54 0.44 -1.16 0.44 -1.82 c0 -0.64 -0.14 -1.26 -0.44 -1.8 c-0.28 -0.54 -0.68 -0.96 -1.18 -1.28 c-0.48 -0.3 -1.02 -0.46 -1.6 -0.46 c-0.6 0 -1.14 0.16 -1.64 0.46 c-0.52 0.32 -0.92 0.74 -1.22 1.28 c-0.3 0.56 -0.44 1.16 -0.44 1.8 c0 0.66 0.14 1.28 0.44 1.82 c0.32 0.54 0.72 0.98 1.22 1.28 c0.5 0.32 1.04 0.48 1.64 0.48 z M394.5245 20 c-1.08 0 -1.86 -0.22 -2.68 -0.66 c-0.8 -0.44 -1.44 -1.06 -1.88 -1.88 c-0.44 -0.8 -0.66 -1.76 -0.66 -2.86 l0 -7.04 c0 -0.14 0.12 -0.24 0.26 -0.24 l2.6 0 c0.14 0 0.24 0.1 0.24 0.24 l0 7.04 c0 0.8 0.22 1.42 0.64 1.86 s0.8 0.66 1.5 0.66 s1.06 -0.22 1.46 -0.64 c0.4 -0.44 0.6 -1.08 0.6 -1.88 l0 -7.04 c0 -0.14 0.12 -0.24 0.26 -0.24 l2.6 0 c0.14 0 0.26 0.1 0.26 0.24 l0 7.04 c0 1.1 -0.22 2.06 -0.66 2.86 c-0.42 0.82 -1.06 1.44 -1.86 1.88 s-1.6 0.66 -2.68 0.66 z M406.038 20 c-0.14 0 -0.26 -0.12 -0.26 -0.26 l0 -11.98 c0 -0.14 0.12 -0.26 0.26 -0.26 l2.36 0 c0.08 0 0.16 0.04 0.22 0.1 l4.6 7.1 l0 -6.94 c0 -0.14 0.12 -0.26 0.26 -0.26 l2.46 0 c0.14 0 0.26 0.12 0.26 0.26 l0 11.98 c0 0.14 -0.12 0.26 -0.26 0.26 l-2.36 0 c-0.08 0 -0.16 -0.04 -0.22 -0.1 l-4.58 -7.06 l0 6.9 c0 0.14 -0.12 0.26 -0.26 0.26 l-2.48 0 z M422.5115 20 c-0.16 0 -0.26 -0.12 -0.26 -0.26 l0 -11.98 c0 -0.14 0.1 -0.26 0.26 -0.26 l4.54 0 c1.2 0 2.3 0.26 3.26 0.8 c0.96 0.52 1.7 1.26 2.24 2.22 c0.52 0.94 0.8 2.02 0.8 3.22 c0 1.22 -0.28 2.3 -0.82 3.24 c-0.54 0.96 -1.3 1.7 -2.28 2.22 c-0.96 0.54 -2.08 0.8 -3.3 0.8 l-4.44 0 z M425.3515 17.2 l1.76 0 c0.58 0 1.12 -0.14 1.58 -0.42 c0.46 -0.3 0.84 -0.7 1.1 -1.22 s0.4 -1.12 0.4 -1.8 c0 -0.66 -0.14 -1.28 -0.42 -1.8 c-0.28 -0.54 -0.66 -0.94 -1.14 -1.24 c-0.48 -0.28 -1.04 -0.44 -1.64 -0.44 l-1.64 0 l0 6.92 z M440.725 20 c-0.38 0 -0.7 -0.14 -0.94 -0.4 c-0.24 -0.28 -0.38 -0.6 -0.38 -1 s0.14 -0.72 0.38 -0.98 c0.26 -0.26 0.56 -0.4 0.94 -0.4 s0.7 0.14 0.94 0.4 s0.36 0.58 0.36 0.98 s-0.12 0.74 -0.36 1 s-0.56 0.4 -0.94 0.4 z"></path></g><g id="SvgjsG12988" featureKey="nameLeftFeature-0" transform="matrix(0.6261408382955946,0,0,0.6261408382955946,-2.090342540528144,-3.5754013382971106)" fill="#fff"><path d="M31.99496 35.114 l2.323944 -0.034844 l0.06957 4.64856 l-2.32414 0.034805 c-0.361758 0.005508 -0.77086 0.011797 -1.217384 0.011797 c-3.227928 0 -8.40516 -0.320156 -11.67572 -3.542304 c-1.455976 -1.434532 -2.373084 -3.258008 -2.739572 -5.43984 l-8.41088 0 l-0.033203 8.97928 l-4.64912 -0.017266 l0.074805 -20.25476 l0 -2.327032 l0.008633 0 l0 -0.008633 l2.322304 0.008633 l21.90248 0 c2.945664 0 7.32768 1.813556 7.32768 6.80976 c0 4.99648 -4.07232 6.81004 -6.80976 6.81004 l-6.96512 0 c0.250859 0.850392 0.656836 1.558476 1.234688 2.127928 c2.336952 2.301916 7.21596 2.22918 9.5608 2.193868 z M8.06264 26.143 l20.08128 -0.000039 c0.202969 -0.00707 0.808516 -0.083438 1.307616 -0.359414 c0.432148 -0.239102 0.873712 -0.640116 0.873712 -1.801524 c0 -0.933828 -0.315976 -1.439452 -1.127656 -1.80332 c-0.737656 -0.330625 -1.543048 -0.357305 -1.550624 -0.357305 l-19.58432 0 l0 4.3216 z M46.34752 40.049219 l-4.64912 0 l0 -22.59072 l4.64912 0 l0 22.59072 z M81.43716 17.32432 l5.81128 0 l-18.03396 24.04668 l-18.03604 -24.04668 l5.81156 0 l12.2242 16.29836 z M123.89348 21.90252 l-27.1796 0.000039 l0 4.37256 l18.1284 0.0675 l-0.017266 4.6954 l-18.11112 -0.0675 l0 4.35636 l27.1796 0 l0 4.6954 l-31.875 0 l0 -22.81488 l31.875 0 l0 4.69512 z M159.23496 35.114 l2.323944 -0.034844 l0.06957 4.64856 l-2.32414 0.034805 c-0.361758 0.005508 -0.77086 0.011797 -1.217384 0.011797 c-3.227928 0 -8.40516 -0.320156 -11.67572 -3.542304 c-1.455976 -1.434532 -2.373084 -3.258008 -2.739572 -5.43984 l-8.41088 0 l-0.033203 8.97928 l-4.64912 -0.017266 l0.074805 -20.25476 l0 -2.327032 l0.008633 0 l0 -0.008633 l2.322304 0.008633 l21.90248 0 c2.945664 0 7.32768 1.813556 7.32768 6.80976 c0 4.99648 -4.07232 6.81004 -6.80976 6.81004 l-6.96512 0 c0.250859 0.850392 0.656836 1.558476 1.234688 2.127928 c2.336952 2.301916 7.21596 2.22918 9.5608 2.193868 z M135.30264 26.143 l20.08128 -0.000039 c0.202969 -0.00707 0.808516 -0.083438 1.307616 -0.359414 c0.432148 -0.239102 0.873712 -0.640116 0.873712 -1.801524 c0 -0.933828 -0.315976 -1.439452 -1.127656 -1.80332 c-0.737656 -0.330625 -1.543048 -0.357305 -1.550624 -0.357305 l-19.58432 0 l0 4.3216 z M218.21904 35.3002 l0.080274 4.64836 l-2.32414 0.040039 c-0.030078 0.000508 -2.05496 0.034258 -6.01532 0.034258 c-2.006328 0 -4.50916 -0.008906 -7.50108 -0.034805 c-4.82644 -0.042109 -8.68556 -1.084256 -11.46956 -3.097928 c-2.766992 -2.001368 -4.29072 -4.91248 -4.29072 -8.1972 c0 -3.28258 1.537072 -6.20028 4.32788 -8.21496 c2.765976 -1.996916 6.72316 -3.062072 11.44368 -3.080392 c8.882 -0.034258 13.4382 0.000547 13.4832 0.00082 l2.324416 0.01832 l-0.036641 4.64912 l-2.324416 -0.01832 c-0.044726 -0.000508 -4.57844 -0.035039 -13.4288 -0.000781 c-6.87148 0.02668 -11.14024 2.573164 -11.14024 6.64624 c0 1.803868 0.796248 3.294608 2.366248 4.43012 c1.958712 1.41672 4.99672 2.183164 8.7852 2.216132 c8.82892 0.077148 13.3514 0.001797 13.39584 0.001016 z M229.66752 40.049219 l-4.64912 0 l0 -22.59072 l4.64912 0 l0 22.59072 z M236.378476 16.95056 l31.875 0 l0 4.6954 l-13.59076 0 l0 18.18644 l-4.69512 0 l0 -18.18644 l-13.58916 0 l0 -4.6954 z M306.82016 16.88984 l0.033516 2.34746 c0.036641 2.52582 -0.981444 4.97788 -2.86668 6.90496 c-1.769336 1.808556 -5.02444 3.932072 -10.734 4.42856 l-0.073516 9.2524 l-4.69512 -0.032188 l0.072969 -9.1988 c-4.46468 -0.362812 -8.17992 -1.859844 -10.61708 -4.31452 c-1.94668 -1.96082 -2.998244 -4.46128 -2.96082 -7.04048 l0.034258 -2.34742 l4.69488 0.068281 l-0.034023 2.34742 c-0.019102 1.324648 0.53336 2.591756 1.598244 3.663984 c1.960548 1.974688 5.38176 3.04742 9.62696 3.013944 c4.3352 -0.031641 7.7912 -1.141288 9.73164 -3.124844 c1.01832 -1.040584 1.546444 -2.26922 1.527892 -3.553048 l-0.034023 -2.34742 z"></path></g><g id="SvgjsG12989" featureKey="inlineSymbolFeature-0" transform="matrix(0.321979473093318,0,0,0.321979473093318,209.92782623258017,-0.08176139028433063)" fill="#fff"><path xmlns="http://www.w3.org/2000/svg" fill-rule="evenodd" d="M84.2624585,38.1641791 C84.2624585,40.9256029 82.0238822,43.1641791 79.2624585,43.1641791 C78.8845449,43.1641791 78.5120484,43.122055 78.1504115,43.0398562 L78.1504115,44.9056342 L82.9282862,48.7853583 C83.1621302,48.9752441 83.2979186,49.260425 83.2979186,49.5616551 L83.2979186,50.4373578 L84.6157247,50.4373578 C84.8475088,50.4373578 85.0720951,50.5178743 85.2510829,50.6651403 L89.4604971,54.1285244 C89.6643398,54.2962403 89.7936006,54.537751 89.8200908,54.800389 L90.1142307,57.7166446 L91.4266815,60.3761877 C91.6105915,60.748862 91.544839,61.1964391 91.2615154,61.5004732 L90.3543524,62.4739483 L92.3307343,66.2045823 L95.1226937,67.4625643 C95.5493214,67.6547913 95.7856026,68.1171651 95.6914372,68.5755266 L94.3294823,75.2050057 C94.1982986,75.8435578 93.5010312,76.1878846 92.9142643,75.9038731 L92.1110913,75.515115 L91.4328022,77.0833849 L89.7280107,80.6636886 C89.5987198,80.9352179 89.3540918,81.1341414 89.0619031,81.2053458 L88.2267472,81.4088676 L88.6553048,81.8335303 C89.0024056,82.1774765 89.0501046,82.7219004 88.7681018,83.1209647 L87.0694505,85.5247384 C86.8820408,85.7899433 86.577522,85.9476313 86.2527821,85.9476313 L77.1504115,85.9476313 C76.296443,85.9476313 75.835398,84.9462973 76.3906225,84.2974615 L80.0738828,79.9932008 L79.3984405,77.653475 L16.4335058,77.653475 C15.8812211,77.653475 15.4335058,77.2057598 15.4335058,76.653475 L15.4335058,28.7059427 L12.3946639,26.4329337 L8.49945191,22.0470804 C8.17621678,21.6804783 8.16533516,21.1339414 8.47372171,20.7547637 L11.6436605,16.857155 L11.5277867,15.7468669 L10.4915509,16.2924579 C10.1357816,16.4797749 9.70242405,16.4358004 9.39153482,16.1808351 L4.8259926,12.4365589 C4.75535997,12.3786319 4.69299752,12.3113 4.64064522,12.2364419 L1.28316911,7.43561258 C1.19958567,7.31609726 1.14315581,7.17974588 1.11783577,7.03611789 L0.239615421,2.0544115 C0.131675896,1.44212436 0.602700939,0.880799538 1.22442956,0.880799538 L24.1032707,0.880978007 L57.2789702,0.254112336 C57.5667413,0.248674806 57.8429017,0.367495146 58.036822,0.580184413 L62.3234573,5.28171173 C62.5320606,5.51050516 62.6229201,5.82302153 62.5695013,6.12799397 L61.7637206,10.7282615 L62.8661049,13.9279723 L63.75285,17.4245546 L68.0702672,22.2331186 L72.2180458,25.4707403 C72.41433,25.6239534 72.546393,25.8448844 72.5884018,26.0903166 L73.6400877,32.2346905 L75.059466,31.0420923 C75.347015,30.8004862 75.7456947,30.7403721 76.0916997,30.8864491 L81.5731097,33.2006 C81.9505843,33.3599628 82.177921,33.7229105 82.1843119,34.1059323 C83.4662289,35.029265 84.2624585,36.5250672 84.2624585,38.1641791 Z M79.2624585,41.1641791 C80.9193127,41.1641791 82.2624585,39.8210334 82.2624585,38.1641791 C82.2624585,36.5073249 80.9193127,35.1641791 79.2624585,35.1641791 C77.6056042,35.1641791 76.2624585,36.5073249 76.2624585,38.1641791 C76.2624585,39.8210334 77.6056042,41.1641791 79.2624585,41.1641791 Z M77.2958812,33.5657653 L75.8775564,32.9669746 L73.5918515,34.8874827 C73.000545,35.3843137 72.0931902,35.0518254 71.9628922,34.2905719 L70.6823602,26.8091864 L66.7699453,23.7552821 L62.1000316,18.5773458 C61.9918844,18.4568958 61.9145947,18.3119922 61.8748019,18.1550828 L60.9516478,14.5004535 L59.7890428,11.136625 C59.7336319,10.9763016 59.7199145,10.8045177 59.7491811,10.6374326 L60.5147985,6.26646017 L56.8639975,2.26230795 L24.1221626,2.88079954 L2.41613865,2.88079954 L3.04902407,6.47084314 L6.20070803,10.9774119 L10.1468207,14.2136836 L11.9031635,13.2889474 C12.5292134,12.9593243 13.2902035,13.3662922 13.3636444,14.0699939 L13.6759367,17.062341 C13.7035162,17.3266037 13.6247943,17.5909781 13.4571473,17.797109 L10.5597238,21.3596456 L13.6753585,24.89329 L17.0324728,27.4043621 C17.2848859,27.5931634 17.4335058,27.8899243 17.4335058,28.2051358 L17.4335058,75.653475 L80.1505917,75.653475 C80.5960551,75.653475 80.9878053,75.9481303 81.1113582,76.3761167 L82.144936,79.9564204 C82.2382671,80.2797185 82.1627406,80.6282794 81.9439583,80.8839485 L79.3222907,83.9476313 L85.7349552,83.9476313 L86.6461308,82.65822 L85.5489105,81.5709716 C84.9934378,81.0205473 85.2562568,80.0742258 86.0160178,79.8890772 L88.1266994,79.3747186 L89.612003,76.2567266 L90.6895732,73.7636319 C90.9153551,73.241257 91.5309441,73.0123419 92.043176,73.2602764 L92.628985,73.5438242 L93.571263,68.9571731 L91.1967014,67.8872594 C90.9941921,67.7960141 90.8278247,67.6399439 90.7238441,67.4436692 L88.2537747,62.7811471 C88.0542913,62.4046007 88.1153368,61.9430064 88.4058463,61.6312612 L89.3276306,60.642096 L88.2406802,58.4395056 C88.1877441,58.3322363 88.1544836,58.2163394 88.1424794,58.0973234 L87.8715434,55.411123 L84.2572144,52.4373578 L82.2979186,52.4373578 C81.7456339,52.4373578 81.2979186,51.9896426 81.2979186,51.4373578 L81.2979186,50.0378034 L76.5200439,46.1580793 C76.2861999,45.9681936 76.1504115,45.6830126 76.1504115,45.3817825 L76.1504115,42.8067015 C76.1504115,42.6611901 76.1821674,42.5174317 76.2434628,42.3854603 L76.3247011,42.210551 C75.0749198,41.3016151 74.2624585,39.8277773 74.2624585,38.1641791 C74.2624585,36.1009492 75.5121448,34.3295992 77.2958812,33.5657653 L77.2958812,33.5657653 Z"></path></g><g id="SvgjsG12990" featureKey="nameRightFeature-0" transform="matrix(0.6197143981415124,0,0,0.6197143981415124,247.92498457406535,-2.556714729559875)" fill="#fff"><path d="M50.06624 21.65456 c1.911368 1.938828 2.943592 4.4228 2.90672 6.99416 c-0.045781 3.182928 -1.57996 6.08728 -4.32004 8.17836 c-2.8541 2.177928 -6.87092 3.32914 -11.61628 3.32914 c-9.05776 0 -13.61584 -0.133398 -13.66084 -0.134688 l-2.277344 -0.068281 l0 -22.74584 l15.93816 0 c7.14564 0 11.02956 2.41832 13.0296 4.44716 z M37.03692 35.4606 c7.69732 0 11.19232 -3.455236 11.24176 -6.87932 c0.018828 -1.32336 -0.519256 -2.578672 -1.5559 -3.630508 c-1.937812 -1.96578 -5.3776 -3.048204 -9.68584 -3.048204 l-11.24276 0 l0 13.47408 c2.18004 0.03793 5.92612 0.083984 11.24276 0.083984 z M64.34752 40.049219 l-4.64912 0 l0 -22.59072 l4.64912 0 l0 22.59072 z M102.61908 28.78868 c-0.039766 2.731444 -0.000312 8.86036 0.000469 8.92156 l0.01543 2.339844 l-15.79584 0 c-4.74664 0 -8.71748 -1.062264 -11.48316 -3.071484 c-2.771212 -2.0134 -4.29728 -4.93396 -4.29728 -8.22388 c0 -2.72828 1.029336 -5.19264 2.977072 -7.126 c2.788712 -2.76832 7.22092 -4.21148 12.82036 -4.16912 c3.415196 0.025117 13.33304 0.000273 13.43296 0 l2.324416 -0.006016 l0.011758 4.64912 l-2.324416 0.006016 c-0.100195 0.000273 -10.04108 0.025391 -13.47908 0 c-4.27528 -0.03375 -7.64808 0.970196 -9.51104 2.819572 c-1.0641 1.056248 -1.603476 2.343476 -1.603476 3.82664 c0 4.09924 4.26536 6.646 11.1316 6.646 l11.11984 0 c-0.004961 -1.273908 -0.008633 -2.878984 -0.004961 -4.3216 l-8.95416 0 l0 -4.64912 l13.6538 0 z M114.02752 40.049219 l-4.64912 0 l0 -22.59072 l4.64912 0 l0 22.59072 z M120.738476 16.95056 l31.875 0 l0 4.6954 l-13.59076 0 l0 18.18644 l-4.69512 0 l0 -18.18644 l-13.58916 0 l0 -4.6954 z M167.67084 15.42116 l18.35304 24.3802 l-5.90152 0 l-5.13196 -6.79484 l-14.6394 0 l-5.05716 6.79484 l-5.83536 0 z M163.8726 28.31112 l7.5966 0 l-3.798436 -5.06448 z M195.55388 35.23796 l27.1796 0 l0 4.6954 l-31.875 0 l0 -22.81488 l4.6954 0 l0 18.11948 z"></path></g>
&#x9;&#x9;&#x9;</g>
&#x9;&#x9;</svg>